<?xml version="1.0" encoding="iso-8859-1"?>
<!-- Generator: Adobe Illustrator 19.0.0, SVG Export Plug-In . SVG Version: 6.00 Build 0)  -->
<svg version="1.1" id="Capa_1" xmlns="http://www.w3.org/2000/svg" xmlns:xlink="http://www.w3.org/1999/xlink" x="0px" y="0px"
	 viewBox="0 0 512 512" style="enable-background:new 0 0 512 512;" xml:space="preserve">
<g>
	<g>
		<path d="M392,212H120C53.832,212,0,265.832,0,332s53.832,120,120,120c23.135,0,45.599-6.603,64.963-19.093
			c16.117-10.396,29.448-24.418,38.977-40.907h64.121c9.528,16.489,22.86,30.512,38.977,40.907C346.401,445.397,368.865,452,392,452
			c66.168,0,120-53.832,120-120S458.168,212,392,212z M163,345h-30v30h-30v-30H73v-30h30v-30h30v30h30V345z M236,316h-30v-30h30V316
			z M306,316h-30v-30h30V316z M393,285c8.284,0,15,6.716,15,15s-6.716,15-15,15s-15-6.716-15-15S384.716,285,393,285z M363,345
			c-8.284,0-15-6.716-15-15s6.716-15,15-15s15,6.716,15,15S371.284,345,363,345z M393,375c-8.284,0-15-6.716-15-15s6.716-15,15-15
			s15,6.716,15,15S401.284,375,393,375z M423,345c-8.284,0-15-6.716-15-15s6.716-15,15-15s15,6.716,15,15S431.284,345,423,345z"/>
	</g>
</g>
<g>
	<g>
		<path d="M132.374,107.126l-42,72.746l35.325,20.395c5.87-28.65,20.987-53.967,42.077-72.701L132.374,107.126z"/>
	</g>
</g>
<g>
	<g>
		<path d="M379.626,107.127l-35.402,20.44c21.09,18.733,36.207,44.05,42.077,72.701l35.325-20.395L379.626,107.127z"/>
	</g>
</g>
<g>
	<g>
		<path d="M214,60v40.801C227.208,96.394,241.329,94,256,94s28.792,2.394,42,6.801V60H214z"/>
	</g>
</g>
<g>
	<g>
		<path d="M256,124c-40.668,0-75.903,23.694-92.636,58h185.272C331.903,147.694,296.668,124,256,124z"/>
	</g>
</g>
<g>
</g>
<g>
</g>
<g>
</g>
<g>
</g>
<g>
</g>
<g>
</g>
<g>
</g>
<g>
</g>
<g>
</g>
<g>
</g>
<g>
</g>
<g>
</g>
<g>
</g>
<g>
</g>
<g>
</g>
</svg>
