<svg version="1.2" xmlns="http://www.w3.org/2000/svg" viewBox="0 0 989 187" width="989" height="187"><style>.a{fill:#ef5126}</style><path class="a" d="m71.9 56.6q1.7-1 3.6-1.8 1.9-0.8 3.8-1.4 2-0.5 4-0.8 2-0.3 4-0.3c2.9 0 5.8 0.3 8.6 1.1 2.8 0.7 5.4 1.8 7.9 3.3 2.5 1.4 4.8 3.2 6.8 5.3 1.9 2.1 3.6 4.5 5 7l2.4 2.9q0.7 0.4 1.4 0.8 0.8 0.4 1.5 0.7 0.8 0.3 1.5 0.6 0.8 0.2 1.6 0.4 0 0 0.1 0 0 0 0 0 0.1 0 0.1 0 0 0 0.1 0l36-0.5q0.8 0 1.5-0.4 0.8-0.3 1.3-0.9 0.5-0.7 0.8-1.5 0.2-0.8 0-1.6c-3-21.3-14.1-40.6-31.2-53.7-17-13.2-38.4-19.2-59.8-16.7-21.4 2.4-40.9 13.1-54.5 29.8-13.6 16.7-20.1 38-18.2 59.4 1.3 18.7 7.4 35.7 19.3 48.9 1.7 2 4.6 4.2 5.8 6.6 8.3 16.9 27.7 40.6 69.9 37.8 0 0-9.9-6 0.6-17.8 8.4-1.4 16.6-4.1 24.1-8 7.6-3.9 14.6-8.9 20.6-14.9 6.1-6.1 11.2-13 15.1-20.6 3.9-7.5 6.6-15.7 8.1-24.1q0.1-0.8-0.1-1.6-0.2-0.8-0.8-1.5-0.5-0.6-1.3-1-0.8-0.3-1.6-0.3l-35.5 0.5q-0.1 0-0.2 0-0.8 0.2-1.5 0.5-0.8 0.3-1.5 0.6-0.7 0.4-1.4 0.8-0.7 0.4-1.4 0.8c-0.8 1-1.6 1.9-2.4 2.9-2.9 5.9-7.6 10.7-13.4 13.8-5.8 3.1-12.5 4.3-19 3.5-6.5-0.9-12.6-3.8-17.4-8.3-4.9-4.4-8.2-10.3-9.5-16.8q-0.1-0.7-0.2-1.4-0.1-0.7-0.2-1.5-0.1-0.7-0.1-1.4-0.1-0.7-0.1-1.4 0-1.3 0.1-2.5 0.1-1.2 0.2-2.4 0.2-1.2 0.5-2.4 0.3-1.2 0.6-2.4 0.9-2.8 2.3-5.4 1.3-2.7 3.2-5 1.8-2.3 4.1-4.3 2.2-1.9 4.8-3.4z"/><path class="a" d="m268.3 61.5q-8.6-5.1-21.5-5.1-12.2 0-20.4 4.4-1.9 1-3.6 2.2-1.8 1.2-3.4 2.7-1.6 1.4-3 3.1-1.3 1.6-2.5 3.5-1.1 1.7-2 3.6-0.9 1.8-1.7 3.8-0.7 1.9-1.3 3.9-0.5 2-0.9 4h-1.5v-61.7h-28.8v128.3h28.7v-48q0-1.7 0.1-3.4 0.1-1.7 0.4-3.4 0.3-1.7 0.8-3.3 0.4-1.7 1-3.2 0.6-1.4 1.4-2.6 0.8-1.1 1.8-2.2 1-1 2.2-1.8 1.2-0.8 2.5-1.4 5.5-2.7 15.1-2.7 13.6 0 19.3 4.9 5.6 4.8 5.6 17v50.1h28.8v-58.8q0-2.5-0.2-5.1-0.3-2.5-0.8-5.1-0.6-2.5-1.4-4.9-0.8-2.4-1.9-4.8-1-2.2-2.3-4.2-1.4-2-3-3.7-1.7-1.8-3.5-3.3-1.9-1.5-4-2.8z"/><path fill-rule="evenodd" class="a" d="m380.9 64.2q2.3 1.5 4.2 3.4 2 1.8 3.7 3.9 1.6 2.1 2.9 4.5 5.1 9.3 5.1 21.9v56.3h-26.8v-22h-1.5q-0.7 2.7-2 5.2-1.2 2.5-2.9 4.8-1.7 2.2-3.8 4.1-2 2-4.4 3.5-9.9 6.4-26 6.4-15.5 0-24.3-6.9-8.8-6.9-8.8-18.8-0.1-1.6 0.1-3.3 0.2-1.6 0.7-3.2 0.4-1.6 1.1-3.1 0.6-1.5 1.5-2.9 1-1.3 2.1-2.6 1.2-1.2 2.5-2.2 1.3-1.1 2.8-2 1.4-0.8 3-1.5 2-0.9 4.1-1.6 2.1-0.7 4.3-1.2 2.2-0.6 4.4-0.9 2.2-0.4 4.4-0.6l41.2-4.2v-3.6q0-9.4-4.7-12.7-4.7-3.2-16.2-3.2-10.9 0-15.7 3.2-4.8 3.3-4.8 11.5v0.8h-28.9v-0.6q-0.1-2.8 0.3-5.5 0.4-2.8 1.2-5.5 0.8-2.6 2-5.2 1.2-2.5 2.8-4.8 6.3-9.1 17.9-14.2 11.6-5 27.3-5 16.1 0 26.6 5.1 2.4 1.2 4.6 2.7zm-23.3 68.8q1.4-0.6 2.7-1.4 1.3-0.8 2.5-1.8 1.1-0.9 2.1-2.1 0.9-1 1.5-2.2 0.7-1.2 1.1-2.5 0.4-1.3 0.7-2.6 0.2-1.3 0.2-2.7l-33.2 3.8q-5.2 0.4-7.6 2-0.6 0.4-1.1 1-0.5 0.6-0.8 1.2-0.3 0.7-0.4 1.4-0.2 0.7-0.1 1.5-0.1 0.8 0.1 1.6 0.2 0.9 0.6 1.6 0.4 0.7 1 1.3 0.6 0.6 1.4 1 3 1.8 9.3 1.8 2.2 0 4.4-0.1 2.1-0.1 4.2-0.3 2.2-0.3 4.3-0.6 2.1-0.4 4.2-1 1.5-0.3 2.9-0.9z"/><path class="a" d="m500.5 61.4q-8.7-5-21.7-5-12.6 0-20.8 4.5-1.9 1-3.6 2.2-1.8 1.3-3.4 2.8-1.6 1.5-3 3.1-1.4 1.7-2.5 3.5-1.1 1.8-2 3.6-0.9 1.9-1.6 3.8-0.8 1.9-1.3 3.9-0.5 2-0.9 4h-1.7v-29.5h-26.6v96h28.7v-48.5q0-12.3 5.5-17.9 5.5-5.7 19.2-5.7 13.3 0 18.6 5.1 5.4 5.1 5.4 16.8v50.1h28.7v-59.7q0-2.5-0.2-5-0.2-2.5-0.8-4.9-0.5-2.5-1.3-4.8-0.8-2.4-1.9-4.7-1-2.1-2.4-4.1-1.4-1.9-3-3.7-1.6-1.7-3.5-3.2-1.9-1.5-3.9-2.7z"/><path fill-rule="evenodd" class="a" d="m613.1 64.2q2.2 1.5 4.2 3.4 2 1.8 3.6 3.9 1.7 2.1 3 4.5 5.1 9.3 5.1 21.9v56.3h-26.8v-22h-1.6q-0.7 2.7-2 5.2-1.2 2.6-2.9 4.8-1.7 2.2-3.7 4.2-2.1 1.9-4.5 3.4-9.9 6.4-25.9 6.4-15.6 0-24.4-6.9-8.8-6.9-8.8-18.8 0-1.6 0.2-3.3 0.2-1.6 0.6-3.2 0.5-1.6 1.1-3.1 0.7-1.5 1.6-2.8 0.9-1.4 2.1-2.7 1.2-1.2 2.5-2.2 1.3-1.1 2.7-2 1.5-0.8 3-1.5 2.1-0.9 4.2-1.6 2.1-0.7 4.3-1.2 2.1-0.6 4.3-0.9 2.2-0.4 4.5-0.6l41.1-4.2v-3.6q0-9.4-4.7-12.7-4.6-3.2-16.1-3.2-11 0-15.7 3.2-4.8 3.3-4.8 11.5v0.8h-29v-0.6q0-2.8 0.4-5.5 0.4-2.8 1.2-5.5 0.8-2.6 2-5.2 1.2-2.5 2.8-4.8 6.3-9.1 17.9-14.2 11.6-5 27.3-5 16.1 0 26.5 5.1 2.4 1.2 4.7 2.7zm-23.4 68.8q1.5-0.6 2.8-1.4 1.3-0.8 2.4-1.8 1.2-0.9 2.2-2.1 0.8-1.1 1.5-2.2 0.6-1.2 1.1-2.5 0.4-1.3 0.6-2.6 0.3-1.3 0.3-2.7l-33.3 3.8q-5.2 0.4-7.6 2-0.6 0.4-1 1-0.5 0.6-0.8 1.2-0.3 0.7-0.5 1.4-0.1 0.7-0.1 1.5 0 0.8 0.2 1.6 0.2 0.9 0.6 1.6 0.4 0.7 1 1.3 0.6 0.6 1.3 1 3.1 1.8 9.4 1.8 2.2 0 4.3-0.1 2.2-0.1 4.3-0.3 2.1-0.3 4.2-0.6 2.2-0.4 4.2-1 1.5-0.3 2.9-0.9z"/><path class="a" d="m821.5 102l-7.7 22.8h-1.9l-8-22.6-20.3-43.9h-65l-24.5 35.6h-21.8v-68h-28.8v128.3h28.8v-34.6h22l24 34.6h33.9l-34.5-49.6 34-45 46.2 95q-0.3 0.7-0.7 1.4-0.4 0.6-0.9 1.2-0.6 0.6-1.1 1.1-0.6 0.5-1.3 0.9c-1.8 1-4.5 1.5-8 1.5h-23.6v26.1h15.7q2.6 0 5.2-0.1 2.6-0.1 5.2-0.4 2.6-0.3 5.2-0.7 2.6-0.4 5.1-1 2-0.5 4-1.3 2-0.7 3.9-1.7 1.8-1 3.5-2.2 1.8-1.2 3.3-2.7 6.2-5.6 10.8-15.6l47.5-102.8h-32z"/><path fill-rule="evenodd" class="a" d="m959.6 64.2q2.2 1.5 4.2 3.3 2 1.9 3.7 4 1.6 2.1 3 4.5 5 9.3 5 21.9v56.3h-26.8v-22h-1.5q-0.8 2.7-2 5.2-1.3 2.6-3 4.8-1.6 2.2-3.7 4.1-2.1 2-4.4 3.5-9.9 6.4-26 6.4-15.5 0-24.3-6.9-8.8-6.9-8.8-18.8-0.1-1.6 0.1-3.3 0.2-1.6 0.7-3.2 0.4-1.6 1.1-3.1 0.6-1.5 1.5-2.8 1-1.4 2.1-2.7 1.2-1.2 2.5-2.2 1.3-1.1 2.8-2 1.4-0.8 3-1.5 2-0.9 4.1-1.6 2.1-0.7 4.3-1.2 2.2-0.6 4.4-0.9 2.2-0.4 4.4-0.6l41.2-4.2v-3.6q-0.1-9.4-4.7-12.7-4.7-3.2-16.2-3.2-10.9 0-15.7 3.2-4.8 3.3-4.8 11.5v0.8h-28.9v-0.6q-0.1-2.8 0.3-5.5 0.4-2.8 1.2-5.5 0.8-2.6 2-5.2 1.2-2.5 2.8-4.8 6.3-9.1 17.9-14.2 11.6-5 27.3-5 16.1 0 26.5 5.1 2.5 1.2 4.7 2.7zm-23.3 68.8q1.4-0.6 2.7-1.4 1.3-0.8 2.5-1.7 1.1-1 2.2-2.2 0.8-1.1 1.4-2.2 0.7-1.2 1.1-2.5 0.4-1.3 0.7-2.6 0.2-1.3 0.3-2.7l-33.3 3.8q-5.2 0.4-7.6 2-0.6 0.4-1.1 1-0.4 0.6-0.8 1.2-0.3 0.7-0.4 1.4-0.1 0.7-0.1 1.5 0 0.8 0.1 1.6 0.2 0.9 0.6 1.6 0.4 0.7 1 1.3 0.6 0.6 1.4 1 3 1.8 9.4 1.8 2.1 0 4.2-0.1 2.2-0.1 4.3-0.3 2.2-0.3 4.3-0.6 2.1-0.4 4.2-1 1.4-0.3 2.9-0.9z"/></svg>