<?xml version="1.0" standalone="no"?>
<!DOCTYPE svg PUBLIC "-//W3C//DTD SVG 20010904//EN"
 "http://www.w3.org/TR/2001/REC-SVG-20010904/DTD/svg10.dtd">
<svg version="1.0" xmlns="http://www.w3.org/2000/svg"
 width="400.000000pt" height="400.000000pt" viewBox="0 0 400.000000 400.000000"
 preserveAspectRatio="xMidYMid meet">

<g transform="translate(0.000000,400.000000) scale(0.100000,-0.100000)"
fill="#000000" stroke="none">
<path d="M0 2000 l0 -2000 2000 0 2000 0 0 2000 0 2000 -2000 0 -2000 0 0
-2000z m3420 350 l0 -1090 -1355 0 -1355 0 0 1090 0 1090 1355 0 1355 0 0
-1090z m-2160 -1505 l0 -175 -115 0 c-151 0 -155 4 -155 130 0 119 10 130 115
130 l75 0 0 45 0 45 40 0 40 0 0 -175z m110 140 c0 -33 -2 -35 -35 -35 -33 0
-35 2 -35 35 0 33 2 35 35 35 33 0 35 -2 35 -35z m1540 0 c0 -33 -2 -35 -35
-35 -33 0 -35 2 -35 35 0 33 2 35 35 35 33 0 35 -2 35 -35z m420 -10 l0 -45
75 0 c109 0 115 -8 115 -150 l0 -110 -35 0 -35 0 0 95 0 95 -60 0 -60 0 0 -95
0 -95 -40 0 -40 0 0 175 0 175 40 0 40 0 0 -45z m290 0 l0 -45 50 0 50 0 0
-35 0 -35 -50 0 -50 0 0 -60 0 -60 50 0 50 0 0 -35 0 -35 -64 0 c-58 0 -67 3
-85 26 -19 24 -21 40 -21 175 l0 149 35 0 c35 0 35 0 35 -45z m-2970 -20 l0
-35 -125 0 -125 0 0 -90 0 -90 125 0 125 0 0 -35 0 -35 -144 0 c-144 0 -145 0
-165 26 -31 40 -31 228 0 268 20 26 21 26 165 26 l144 0 0 -35z m1600 -35 l0
-70 29 0 c24 0 38 12 82 70 49 65 56 70 91 70 25 0 38 -5 38 -13 0 -8 -25 -45
-55 -84 -30 -39 -55 -74 -55 -78 0 -4 25 -39 55 -76 l56 -69 -38 0 c-34 0 -46
7 -93 55 -40 40 -62 55 -82 55 -27 0 -28 -2 -28 -55 l0 -55 -40 0 -40 0 0 160
0 160 40 0 40 0 0 -70z m-1310 -12 c17 -18 20 -35 20 -108 0 -121 -9 -130
-132 -130 -80 0 -95 3 -115 22 -21 19 -23 31 -23 107 0 73 3 88 22 108 19 21
30 23 114 23 83 0 95 -2 114 -22z m430 -108 l0 -130 -35 0 -35 0 0 130 0 130
35 0 35 0 0 -130z m290 110 c18 -18 20 -33 20 -130 l0 -110 -35 0 -35 0 0 95
0 95 -60 0 -60 0 0 -95 0 -95 -40 0 -40 0 0 130 0 130 115 0 c102 0 117 -2
135 -20z m306 -1 c17 -19 19 -37 19 -159 0 -179 0 -180 -132 -180 l-93 0 0 35
0 35 75 0 c60 0 75 3 75 15 0 12 -15 15 -73 15 -110 0 -117 8 -117 130 0 126
5 130 136 130 80 0 93 -3 110 -21z m814 1 c18 -18 20 -33 20 -130 l0 -110 -35
0 -35 0 0 95 0 95 -60 0 -60 0 0 -95 0 -95 -40 0 -40 0 0 130 0 130 115 0
c102 0 117 -2 135 -20z m130 -110 l0 -130 -35 0 -35 0 0 130 0 130 35 0 35 0
0 -130z m286 109 c17 -19 19 -37 19 -159 0 -179 0 -180 -132 -180 l-93 0 0 35
0 35 75 0 c60 0 75 3 75 15 0 12 -15 15 -73 15 -110 0 -117 8 -117 130 0 126
5 130 136 130 80 0 93 -3 110 -21z"/>
<path d="M880 3060 l0 -200 1190 0 1190 0 0 200 0 200 -1190 0 -1190 0 0 -200z"/>
<path d="M880 2075 l0 -625 1185 0 1185 0 0 625 0 625 -1185 0 -1185 0 0 -625z
m903 405 c21 -23 27 -40 27 -75 0 -51 -11 -66 -158 -217 l-95 -97 126 -135
c125 -133 127 -136 127 -182 0 -39 -5 -51 -34 -80 -27 -27 -42 -34 -72 -34
-37 -1 -47 7 -213 177 -96 98 -180 193 -188 212 -26 60 -12 82 165 268 91 96
178 181 192 189 38 21 90 10 123 -26z m675 26 c15 -8 102 -93 194 -189 177
-186 191 -208 165 -268 -8 -19 -92 -114 -188 -212 -166 -170 -176 -178 -213
-177 -30 0 -45 7 -72 34 -29 29 -34 41 -34 80 0 46 2 49 127 182 l126 135 -95
97 c-147 150 -158 166 -158 216 0 86 77 139 148 102z"/>
<path d="M1060 800 l0 -60 60 0 60 0 0 60 0 60 -60 0 -60 0 0 -60z"/>
<path d="M760 800 l0 -60 65 0 65 0 0 60 0 60 -65 0 -65 0 0 -60z"/>
<path d="M1790 800 l0 -60 60 0 60 0 0 60 0 60 -60 0 -60 0 0 -60z"/>
<path d="M3020 800 l0 -60 60 0 60 0 0 60 0 60 -60 0 -60 0 0 -60z"/>
</g>
</svg>
